<?xml version="1.0" encoding="UTF-8" standalone="no"?>
<!-- Created with Inkscape (http://www.inkscape.org/) -->

<svg
   xmlns:dc="http://purl.org/dc/elements/1.1/"
   xmlns:cc="http://creativecommons.org/ns#"
   xmlns:rdf="http://www.w3.org/1999/02/22-rdf-syntax-ns#"
   xmlns:svg="http://www.w3.org/2000/svg"
   xmlns="http://www.w3.org/2000/svg"
   xmlns:sodipodi="http://sodipodi.sourceforge.net/DTD/sodipodi-0.dtd"
   xmlns:inkscape="http://www.inkscape.org/namespaces/inkscape"
   width="210mm"
   height="297mm"
   viewBox="0 0 210 297"
   version="1.1"
   id="svg8"
   sodipodi:docname="logo2.svg"
   inkscape:version="0.92.3 (unknown)"
   inkscape:export-filename="/home/kronos/Documents/Entornos Gráficos/myro.png"
   inkscape:export-xdpi="96"
   inkscape:export-ydpi="96">
  <defs
     id="defs2" />
  <sodipodi:namedview
     id="base"
     pagecolor="#ffffff"
     bordercolor="#666666"
     borderopacity="1.0"
     inkscape:pageopacity="0.0"
     inkscape:pageshadow="2"
     inkscape:zoom="0.60628663"
     inkscape:cx="199.13189"
     inkscape:cy="561.42857"
     inkscape:document-units="mm"
     inkscape:current-layer="layer1"
     showgrid="false"
     inkscape:window-width="1366"
     inkscape:window-height="705"
     inkscape:window-x="0"
     inkscape:window-y="27"
     inkscape:window-maximized="1" />
  <metadata
     id="metadata5">
    <rdf:RDF>
      <cc:Work
         rdf:about="">
        <dc:format>image/svg+xml</dc:format>
        <dc:type
           rdf:resource="http://purl.org/dc/dcmitype/StillImage" />
        <dc:title></dc:title>
      </cc:Work>
    </rdf:RDF>
  </metadata>
  <g
     inkscape:label="Layer 1"
     inkscape:groupmode="layer"
     id="layer1">
    <path
       style="fill:#1a1a1a;stroke:#000000;stroke-width:0.26458332px;stroke-linecap:butt;stroke-linejoin:miter;stroke-opacity:1"
       d="m 57.89917,97.370388 v 79.937942 h 19.703015 v -10.13298 h -9.570037 l -0.562944,-60.79787 h 30.398937 v 61.36081 l -8.633413,0.12133 -0.0728,9.44871 H 108.00112 V 97.370388 Z"
       id="path3717"
       inkscape:connector-curvature="0"
       sodipodi:nodetypes="ccccccccccccc" />
    <flowRoot
       xml:space="preserve"
       id="flowRoot3719"
       style="font-style:normal;font-variant:normal;font-weight:normal;font-stretch:condensed;font-size:112.10482788px;line-height:0;font-family:Impact;-inkscape-font-specification:'Impact, Condensed';font-variant-ligatures:normal;font-variant-caps:normal;font-variant-numeric:normal;font-feature-settings:normal;text-align:start;letter-spacing:0px;word-spacing:0px;writing-mode:lr-tb;text-anchor:start;fill:#1a1a1a;fill-opacity:1;stroke:none"
       transform="matrix(0.26458333,0,0,0.19260467,9.4796745,64.7543)"><flowRegion
         id="flowRegion3721"
         style="font-style:normal;font-variant:normal;font-weight:normal;font-stretch:condensed;font-size:112.10482788px;line-height:0;font-family:Impact;-inkscape-font-specification:'Impact, Condensed';font-variant-ligatures:normal;font-variant-caps:normal;font-variant-numeric:normal;font-feature-settings:normal;text-align:start;writing-mode:lr-tb;text-anchor:start;fill:#1a1a1a"><rect
           id="rect3723"
           width="136.20686"
           height="145.98808"
           x="240.51724"
           y="450.96796"
           style="font-style:normal;font-variant:normal;font-weight:normal;font-stretch:condensed;font-size:112.10482788px;line-height:0;font-family:Impact;-inkscape-font-specification:'Impact, Condensed';font-variant-ligatures:normal;font-variant-caps:normal;font-variant-numeric:normal;font-feature-settings:normal;text-align:start;writing-mode:lr-tb;text-anchor:start;fill:#1a1a1a" /></flowRegion><flowPara
         id="flowPara3725"
         style="font-style:normal;font-variant:normal;font-weight:normal;font-stretch:condensed;font-size:112.10482788px;line-height:0;font-family:Impact;-inkscape-font-specification:'Impact, Condensed';font-variant-ligatures:normal;font-variant-caps:normal;font-variant-numeric:normal;font-feature-settings:normal;text-align:start;writing-mode:lr-tb;text-anchor:start;fill:#1a1a1a"></flowPara><flowPara
         style="font-style:normal;font-variant:normal;font-weight:normal;font-stretch:condensed;font-size:112.10482788px;line-height:0;font-family:Impact;-inkscape-font-specification:'Impact, Condensed';font-variant-ligatures:normal;font-variant-caps:normal;font-variant-numeric:normal;font-feature-settings:normal;text-align:start;writing-mode:lr-tb;text-anchor:start;fill:#1a1a1a"
         id="flowPara3727">M</flowPara></flowRoot>    <path
       style="fill:#1a1a1a;stroke-width:0.22808908"
       d="M 58.156792,137.29623 V 97.608735 h 24.747666 24.747672 v 39.687495 39.6875 h -9.123571 -9.123563 v -4.44773 -4.44774 h 4.333692 4.333692 V 137.06815 106.04803 H 82.640732 67.209082 l 0.148949,14.88281 c 0.08192,8.18555 0.216625,21.99064 0.299337,30.67798 l 0.150384,15.79517 h 4.75426 4.754264 v 4.78987 4.78987 h -9.579742 -9.579742 z"
       id="path3731"
       inkscape:connector-curvature="0" />
    <path
       style="fill:#1a1a1a;stroke-width:0.10625837"
       d="m 57.866997,140.33485 0.02641,-37.0576 0.02687,36.95135 0.02687,36.95134 h 9.775617 9.775619 v -4.94101 -4.94102 h -4.781627 -4.781627 l -0.0013,-1.35479 c -7.93e-4,-0.74513 -0.119671,-13.76311 -0.264329,-28.92884 -0.144655,-15.16572 -0.263604,-28.27933 -0.264329,-29.14135 l -0.0013,-1.56731 H 82.651935 97.90001 v 30.74867 30.74868 l -4.303464,0.0787 -4.303464,0.0787 v 4.60976 4.60977 h 9.297607 9.297611 v -36.92478 c 0,-24.54568 0.0356,-36.92478 0.10626,-36.92478 0.0706,0 0.10626,12.41452 0.10626,37.03104 v 37.03104 h -9.526136 -9.526085 l 0.05717,-4.71935 c 0.03144,-2.59565 0.08926,-4.77129 0.128489,-4.83476 0.04908,-0.0794 1.22088,-0.11569 3.757531,-0.11632 2.027412,-5.3e-4 3.937323,-0.0311 4.244245,-0.068 l 0.558037,-0.067 -0.02675,-30.56103 -0.02675,-30.56102 -15.029878,-0.0269 c -8.266433,-0.0148 -15.060406,0.009 -15.097718,0.0531 -0.05007,0.0591 0.473702,60.41484 0.525616,60.56763 0.005,0.0146 2.160757,0.0266 4.790652,0.0266 h 4.781626 v 5.15353 5.15353 h -9.93515 -9.935157 z"
       id="path3733"
       inkscape:connector-curvature="0" />
    <path
       style="fill:#1a1a1a;stroke-width:0.10625837"
       d="m 57.866631,166.6338 0.02606,-10.75866 0.02759,10.6524 0.02759,10.6524 h 9.775258 9.775259 v -4.94101 -4.94102 H 72.716766 67.93514 l -0.01328,-2.84241 c -0.0073,-1.56332 -0.02625,-4.18126 -0.04209,-5.81764 -0.01585,-1.63638 -0.05886,-6.32237 -0.09558,-10.41332 -0.03672,-4.09095 -0.08904,-9.70936 -0.116271,-12.48536 -0.02723,-2.776 -0.07389,-7.79671 -0.103679,-11.15713 -0.02979,-3.36042 -0.07997,-8.84733 -0.111501,-12.19315 l -0.05734,-6.08328 h 15.252295 15.252292 v 30.76179 30.7618 l -1.407921,0.007 c -2.674578,0.0131 -6.933798,0.10446 -7.066183,0.15164 -0.07305,0.026 -0.132823,0.007 -0.132823,-0.0431 0,-0.14626 1.333593,-0.21513 4.728498,-0.24416 1.753262,-0.015 3.319246,-0.0454 3.479962,-0.0676 l 0.292208,-0.0403 V 137.05535 106.51813 H 82.689307 67.584888 l 0.07211,9.48356 c 0.03966,5.21596 0.09435,11.80265 0.121534,14.63709 0.02718,2.83444 0.07338,7.95078 0.102655,11.36964 0.119817,13.99072 0.174268,19.50215 0.213106,21.57045 0.02249,1.19807 0.04371,2.47715 0.04713,2.84241 l 0.0062,0.66412 h 4.781626 4.781627 v 5.15353 5.15353 h -9.935139 -9.935156 z"
       id="path3735"
       inkscape:connector-curvature="0" />
    <path
       style="fill:#1a1a1a;stroke-width:0.10625837"
       d="M 58.159358,140.1489 V 103.33038 H 82.864427 107.5695 v 36.81852 36.81853 h -9.031964 -9.031962 v -4.40973 -4.40972 h 4.303464 4.303464 v -31.08057 -31.08057 h -15.47681 -15.47681 l 0.07366,7.30526 c 0.323837,32.11962 0.488048,49.44431 0.488979,51.58844 l 0.0011,2.52363 h 4.781627 4.781624 v 4.78163 4.78163 h -9.563298 -9.563253 z"
       id="path3737"
       inkscape:connector-curvature="0" />
    <path
       style="fill:#1a1a1a;stroke-width:0.10625837"
       d="m 68.068181,160.97554 c 0.0011,-0.23376 0.02294,-0.31689 0.04836,-0.18471 0.02543,0.13218 0.02445,0.32344 -0.0021,0.42503 -0.0266,0.1016 -0.04739,-0.007 -0.04621,-0.24032 z"
       id="path3739"
       inkscape:connector-curvature="0" />
    <path
       style="fill:#1a1a1a;stroke-width:0.10625837"
       d="M 58.159358,140.1489 V 103.33038 H 82.864427 107.5695 v 36.81852 36.81853 h -9.031964 -9.031962 v -4.40973 -4.40972 h 4.303464 4.303464 V 137.06741 105.98684 H 82.651911 67.191317 l 0.0013,1.88609 c 7.94e-4,1.03734 0.09421,11.13853 0.207794,22.44708 0.113588,11.30854 0.239961,24.2787 0.280826,28.82258 l 0.0743,8.26158 h 4.765183 4.765178 v 4.78163 4.78163 h -9.563287 -9.563253 z"
       id="path3741"
       inkscape:connector-curvature="0" />
    <path
       style="fill:#1a1a1a;stroke-width:0.10625837"
       d="M 58.159358,140.1489 V 103.33038 H 82.864427 107.5695 v 36.81852 36.81853 h -9.031964 -9.031962 v -4.40973 -4.40972 h 4.303464 4.303464 V 137.06741 105.98684 H 82.651911 67.191317 l 2.2e-5,1.46105 c 2.3e-5,1.84473 0.287303,31.5466 0.365617,37.80142 0.0322,2.57145 0.09003,8.60825 0.128513,13.41511 l 0.06997,8.73975 h 4.765212 4.765209 v 4.78163 4.78163 h -9.563249 -9.563253 z"
       id="path3743"
       inkscape:connector-curvature="0" />
    <flowRoot
       xml:space="preserve"
       id="flowRoot3745"
       style="font-style:normal;font-weight:normal;font-size:40px;line-height:1.25;font-family:sans-serif;letter-spacing:0px;word-spacing:0px;fill:#1a1a1a;fill-opacity:1;stroke:none"
       transform="matrix(0.26458333,0,0,0.14086966,45.133267,77.362353)"><flowRegion
         id="flowRegion3747"
         style="fill:#1a1a1a"><rect
           id="rect3749"
           width="487.5426"
           height="228.65878"
           x="244.42836"
           y="433.91507"
           style="fill:#1a1a1a" /></flowRegion><flowPara
         id="flowPara3751"
         style="font-style:normal;font-variant:normal;font-weight:normal;font-stretch:normal;font-size:146.66667175px;font-family:Impact;-inkscape-font-specification:Impact;fill:#1a1a1a">YRO</flowPara></flowRoot>    <path
       style="fill:#1a1a1a;stroke-width:0.24907388"
       d="m 115.35412,156.1764 v -2.9442 l -2.6188,-4.86188 c -1.44035,-2.67404 -2.7026,-5.00239 -2.80501,-5.17413 -0.16869,-0.28287 0.13958,-0.31224 3.277,-0.31224 2.45116,0 3.5112,0.0652 3.62745,0.22303 0.0903,0.12267 0.51726,1.46755 0.94873,2.98862 0.85808,3.02511 1.09826,3.55405 1.29625,2.85479 0.27789,-0.98148 1.87043,-5.4619 2.0453,-5.7542 0.16169,-0.27027 0.65598,-0.31224 3.67753,-0.31224 2.84588,0 3.45631,0.0461 3.30433,0.24929 -0.10253,0.13711 -1.44922,2.49913 -2.99263,5.24893 l -2.80621,4.99963 v 2.8694 2.8694 h -3.47697 -3.47697 z"
       id="path3753"
       inkscape:connector-curvature="0" />
    <path
       style="fill:#1a1a1a;stroke-width:0.24907388"
       d="m 129.9574,150.97824 v -8.14235 l 6.17163,0.0913 c 6.35962,0.0941 7.64328,0.22218 9.07316,0.90536 1.48694,0.71045 1.90072,1.3664 2.04658,3.24437 0.17313,2.22911 -0.34052,2.88109 -2.60493,3.30644 l -1.48148,0.27828 1.51413,0.3775 c 2.42355,0.60422 2.66577,1.0451 2.66577,4.85217 v 3.22928 h -3.45039 -3.45038 l -0.11351,-3.48604 c -0.12146,-3.73011 -0.16724,-3.82045 -1.93892,-3.82664 l -0.78232,-0.003 v 3.65771 3.6577 h -3.82467 -3.82467 z m 10.00248,-2.20627 c 0.28478,-0.27801 0.4116,-0.87432 0.3366,-1.58279 -0.1257,-1.18756 -0.68403,-1.62886 -2.0608,-1.62886 -0.56711,0 -0.62894,0.18536 -0.62894,1.88532 v 1.8853 l 0.94811,-0.0565 c 0.58703,-0.035 1.12213,-0.22634 1.40503,-0.50252 z"
       id="path3755"
       inkscape:connector-curvature="0" />
    <path
       style="fill:#1a1a1a;stroke-width:0.34769717"
       d="M 57.984088,137.36923 V 97.204796 h 25.034195 25.034197 v 40.159024 40.15902 h -9.387824 -9.387824 v -4.85706 -4.85706 l 4.259292,-0.0976 4.259289,-0.0976 0.08882,-30.51043 0.08882,-30.51042 H 82.846335 67.719609 v 13.50305 c 0,7.42668 0.103775,21.03903 0.230611,30.24966 l 0.230611,16.74659 h 4.820293 4.820293 l -0.09622,5.12854 -0.09622,5.12853 -9.822444,0.0923 -9.822445,0.0923 z"
       id="path3757"
       inkscape:connector-curvature="0" />
    <ellipse
       style="fill:#1a1a1a;stroke-width:0.26458332"
       id="path3799"
       cx="83.372322"
       cy="133.22702"
       rx="7.1277919"
       ry="6.7800941" />
    <path
       style="fill:#1a1a1a;stroke-width:0.26262233"
       d="m 74.510061,151.23915 v -8.40391 h 3.80302 c 3.727543,0 3.805783,0.0117 3.942231,0.5909 0.07657,0.32499 0.434237,2.05918 0.794827,3.85375 0.574061,2.85695 0.911794,4.06735 0.915442,3.28082 5.29e-4,-0.13241 0.296064,-1.88916 0.656556,-3.90389 0.360492,-2.01474 0.655439,-3.69881 0.655439,-3.74237 0,-0.0436 1.7727,-0.0792 3.939333,-0.0792 h 3.939337 v 8.40391 8.40391 h -2.626223 -2.626225 v -5.69015 c 0,-3.12958 -0.06003,-5.63011 -0.133411,-5.55673 -0.07338,0.0734 -0.544763,2.36804 -1.047525,5.09925 -0.502758,2.73121 -0.976786,5.23174 -1.053391,5.55674 -0.127497,0.54091 -0.289753,0.59089 -1.917975,0.59089 h -1.778693 l -1.022765,-5.3181 c -0.562523,-2.92495 -1.118929,-5.43037 -1.236459,-5.56759 -0.117533,-0.13722 -0.213693,2.25593 -0.213693,5.3181 v 5.56759 h -2.494913 -2.494912 z"
       id="path3845"
       inkscape:connector-curvature="0" />
    <path
       style="fill:#1a1a1a;stroke-width:0.26262233"
       d="m 155.44124,158.99547 c -2.06251,-0.46982 -3.8547,-1.49429 -4.37531,-2.50104 -0.30992,-0.59932 -0.3954,-1.80515 -0.3954,-5.57773 0,-4.12425 0.0646,-4.90606 0.45151,-5.46246 0.75586,-1.08702 1.44429,-1.53835 3.18977,-2.09116 4.88694,-1.54776 12.00742,-0.56063 13.80452,1.91374 0.46143,0.63534 0.54708,1.22981 0.6342,4.40193 0.13968,5.08629 -0.0597,6.44147 -1.10055,7.47904 -1.39595,1.39161 -3.48321,1.9997 -7.26242,2.11579 -2.25003,0.0691 -3.80612,-0.0184 -4.94632,-0.27811 z m 5.34025,-8.01894 v -5.64638 l -0.87068,-0.0836 c -1.57982,-0.15165 -1.62423,0.002 -1.62423,5.60932 0,2.78712 0.0741,5.26049 0.16458,5.49638 0.12304,0.32065 0.43785,0.40892 1.24745,0.34976 l 1.08288,-0.0791 z"
       id="path3847"
       inkscape:connector-curvature="0" />
  </g>
</svg>
