<svg xmlns:dc="http://purl.org/dc/elements/1.1/" xmlns:cc="http://creativecommons.org/ns#" xmlns:rdf="http://www.w3.org/1999/02/22-rdf-syntax-ns#" xmlns:svg="http://www.w3.org/2000/svg" xmlns="http://www.w3.org/2000/svg" xmlns:sodipodi="http://sodipodi.sourceforge.net/DTD/sodipodi-0.dtd" xmlns:inkscape="http://www.inkscape.org/namespaces/inkscape" width="111" height="80" version="1.1" sodipodi:docname="logo2.svg" inkscape:version="0.92.3 (unknown)" inkscape:export-filename="/home/kronos/Documents/Entornos Gráficos/myro.png" inkscape:export-xdpi="96" inkscape:export-ydpi="96" style=""><rect id="backgroundrect" width="100%" height="100%" x="0" y="0" fill="none" stroke="none"/>
  <defs id="defs2"/>
  <sodipodi:namedview id="base" pagecolor="#ffffff" bordercolor="#666666" borderopacity="1.0" inkscape:pageopacity="0.0" inkscape:pageshadow="2" inkscape:zoom="0.60628663" inkscape:cx="199.13189" inkscape:cy="561.42857" inkscape:document-units="mm" inkscape:current-layer="layer1" showgrid="false" inkscape:window-width="1366" inkscape:window-height="705" inkscape:window-x="0" inkscape:window-y="27" inkscape:window-maximized="1"/>
  <metadata id="metadata5">
    <rdf:RDF>
      <cc:Work rdf:about="">
        <dc:format>image/svg+xml</dc:format>
        <dc:type rdf:resource="http://purl.org/dc/dcmitype/StillImage"/>
        <dc:title/>
      </cc:Work>
    </rdf:RDF>
  </metadata>
  
<g class="currentLayer" style=""><title>Layer 1</title><g inkscape:label="Layer 1" inkscape:groupmode="layer" id="layer1" class="">
    <path style="fill:#1a1a1a;stroke:#000000;stroke-width:0.26458332px;stroke-linecap:butt;stroke-linejoin:miter;stroke-opacity:1" d="m0.058616716308591776,0.16559216259766174 v79.937942 h19.703015 v-10.13298 h-9.570037 l-0.5629440000000001,-60.79787 h30.398937 v61.36081 l-8.633413000000001,0.12133000000000001 l-0.0728,9.44871 H50.160566716308594 V0.16559216259766174 z" id="path3717" inkscape:connector-curvature="0" sodipodi:nodetypes="ccccccccccccc"/>
    <flowRoot xml:space="preserve" id="flowRoot3719" style="font-style:normal;font-variant:normal;font-weight:normal;font-stretch:condensed;font-size:112.10482788px;line-height:0;font-family:Impact;-inkscape-font-specification:'Impact, Condensed';font-variant-ligatures:normal;font-variant-caps:normal;font-variant-numeric:normal;font-feature-settings:normal;text-align:start;letter-spacing:0px;word-spacing:0px;writing-mode:lr-tb;text-anchor:start;fill:#1a1a1a;fill-opacity:1;stroke:none" transform="translate(-57.840553283691406,-97.20479583740234) matrix(0.26458333,0,0,0.19260467,9.4796745,64.7543) "><flowRegion id="flowRegion3721" style="font-style:normal;font-variant:normal;font-weight:normal;font-stretch:condensed;font-size:112.10482788px;line-height:0;font-family:Impact;-inkscape-font-specification:'Impact, Condensed';font-variant-ligatures:normal;font-variant-caps:normal;font-variant-numeric:normal;font-feature-settings:normal;text-align:start;writing-mode:lr-tb;text-anchor:start;fill:#1a1a1a"><rect id="rect3723" width="136.2068634033203" height="145.9880828857422" x="240.51724243164062" y="450.96795654296875" style="font-style:normal;font-variant:normal;font-weight:normal;font-stretch:condensed;font-size:112.10482788px;line-height:0;font-family:Impact;-inkscape-font-specification:'Impact, Condensed';font-variant-ligatures:normal;font-variant-caps:normal;font-variant-numeric:normal;font-feature-settings:normal;text-align:start;writing-mode:lr-tb;text-anchor:start;fill:#1a1a1a"/></flowRegion><flowPara id="flowPara3725" style="font-style:normal;font-variant:normal;font-weight:normal;font-stretch:condensed;font-size:112.10482788px;line-height:0;font-family:Impact;-inkscape-font-specification:'Impact, Condensed';font-variant-ligatures:normal;font-variant-caps:normal;font-variant-numeric:normal;font-feature-settings:normal;text-align:start;writing-mode:lr-tb;text-anchor:start;fill:#1a1a1a"/><flowPara style="font-style:normal;font-variant:normal;font-weight:normal;font-stretch:condensed;font-size:112.10482788px;line-height:0;font-family:Impact;-inkscape-font-specification:'Impact, Condensed';font-variant-ligatures:normal;font-variant-caps:normal;font-variant-numeric:normal;font-feature-settings:normal;text-align:start;writing-mode:lr-tb;text-anchor:start;fill:#1a1a1a" id="flowPara3727">M</flowPara></flowRoot>    <path style="fill:#1a1a1a;stroke-width:0.22808908" d="M0.3162387163085967,40.091434162597665 V0.40393916259765206 h24.747666 h24.747672 v39.687495 v39.6875 h-9.123571 h-9.123563 v-4.44773 v-4.44774 h4.333692 h4.333692 V39.86335416259766 V8.843234162597653 H24.800178716308594 H9.368528716308589 l0.14894900000000005,14.88281 c0.08192000000000002,8.18555 0.216625,21.99064 0.299337,30.67798 l0.15038400000000002,15.79517 h4.75426 h4.754264 v4.7898700000000005 v4.7898700000000005 h-9.579742 h-9.579742 z" id="path3731" inkscape:connector-curvature="0"/>
    <path style="fill:#1a1a1a;stroke-width:0.10625837" d="m0.026443716308591547,43.130054162597645 l0.026410000000000006,-37.0576 l0.026870000000000005,36.95135 l0.026870000000000005,36.95134 h9.775617 h9.775619 v-4.94101 v-4.94102 h-4.781627 h-4.781627 l-0.0013000000000000004,-1.35479 c-0.000793,-0.7451300000000001 -0.11967100000000003,-13.76311 -0.26432900000000004,-28.92884 c-0.144655,-15.16572 -0.263604,-28.27933 -0.26432900000000004,-29.14135 l-0.0013000000000000004,-1.56731 H24.81138171630859 H40.05945671630859 v30.74867 v30.74868 l-4.303464,0.07870000000000002 l-4.303464,0.07870000000000002 v4.60976 v4.60977 h9.297607 h9.297611 v-36.92478 c0,-24.54568 0.03560000000000001,-36.92478 0.10626000000000002,-36.92478 c0.07060000000000001,0 0.10626000000000002,12.41452 0.10626000000000002,37.03104 v37.03104 h-9.526136 h-9.526085 l0.05717000000000001,-4.71935 c0.03144,-2.59565 0.08926000000000003,-4.7712900000000005 0.12848900000000002,-4.83476 c0.049080000000000006,-0.07940000000000001 1.22088,-0.11569000000000003 3.757531,-0.11632000000000002 c2.027412,-0.00053 3.937323,-0.031100000000000006 4.244245,-0.06800000000000002 l0.558037,-0.06700000000000002 l-0.026750000000000006,-30.56103 l-0.026750000000000006,-30.56102 l-15.029878,-0.026900000000000007 c-8.266433,-0.014800000000000002 -15.060406,0.009000000000000003 -15.097718,0.053100000000000015 c-0.05007000000000001,0.059100000000000014 0.473702,60.41484 0.525616,60.56763 c0.005000000000000001,0.014600000000000002 2.1607570000000003,0.026600000000000006 4.790652,0.026600000000000006 h4.781626 v5.15353 v5.15353 h-9.93515 h-9.935157 z" id="path3733" inkscape:connector-curvature="0"/>
    <path style="fill:#1a1a1a;stroke-width:0.10625837" d="m0.026077716308591903,69.42900416259766 l0.026060000000000007,-10.75866 l0.027590000000000007,10.6524 l0.027590000000000007,10.6524 h9.775258000000001 h9.775259 v-4.94101 v-4.94102 H14.8762127163086 H10.094586716308598 l-0.013280000000000004,-2.84241 c-0.007300000000000002,-1.56332 -0.026250000000000006,-4.18126 -0.04209000000000001,-5.81764 c-0.015850000000000003,-1.63638 -0.05886000000000001,-6.32237 -0.09558000000000003,-10.41332 c-0.03672,-4.09095 -0.08904000000000002,-9.70936 -0.11627100000000003,-12.48536 c-0.027230000000000004,-2.776 -0.07389000000000001,-7.79671 -0.10367900000000001,-11.15713 c-0.029790000000000004,-3.36042 -0.07997000000000001,-8.84733 -0.11150100000000002,-12.19315 l-0.05734000000000001,-6.08328 h15.252295 h15.252292 v30.76179 v30.7618 l-1.407921,0.007000000000000002 c-2.6745780000000003,0.013100000000000002 -6.933798,0.10446000000000001 -7.066183,0.15164000000000002 c-0.07305,0.026000000000000006 -0.132823,0.007000000000000002 -0.132823,-0.04310000000000001 c0,-0.14626000000000003 1.333593,-0.21513000000000002 4.728498,-0.24416000000000002 c1.7532619999999999,-0.015000000000000003 3.319246,-0.04540000000000001 3.479962,-0.06760000000000002 l0.292208,-0.04030000000000001 V39.85055416259766 V9.313334162597656 H24.848753716308593 H9.7443347163086 l0.07211000000000001,9.48356 c0.03966000000000001,5.21596 0.09435000000000002,11.80265 0.12153400000000002,14.63709 c0.027180000000000006,2.83444 0.07338,7.95078 0.10265500000000001,11.36964 c0.119817,13.99072 0.17426800000000003,19.50215 0.21310600000000002,21.57045 c0.022490000000000007,1.19807 0.04371000000000001,2.47715 0.04713000000000001,2.84241 l0.0062000000000000015,0.6641200000000002 h4.781626 h4.781627 v5.15353 v5.15353 h-9.935139 h-9.935156 z" id="path3735" inkscape:connector-curvature="0"/>
    <path style="fill:#1a1a1a;stroke-width:0.10625837" d="M0.3188047163085912,42.944104162597654 V6.1255841625976615 H25.0238737163086 H49.7289467163086 v36.81852 v36.81853 h-9.031964 h-9.031962 v-4.40973 v-4.40972 h4.303464 h4.303464 v-31.08057 v-31.08057 h-15.47681 h-15.47681 l0.07366000000000002,7.30526 c0.32383700000000004,32.11962 0.48804800000000004,49.44431 0.48897900000000005,51.58844 l0.0011000000000000003,2.52363 h4.781627 h4.781624 v4.78163 v4.78163 h-9.563298 h-9.563253 z" id="path3737" inkscape:connector-curvature="0"/>
    <path style="fill:#1a1a1a;stroke-width:0.10625837" d="m10.22762771630859,63.77074416259765 c0.0011000000000000003,-0.23376000000000002 0.022940000000000006,-0.31689000000000006 0.04836000000000001,-0.18471000000000004 c0.025430000000000005,0.13218 0.024450000000000006,0.32344000000000006 -0.0021000000000000003,0.42503 c-0.026600000000000006,0.10160000000000001 -0.04739000000000001,-0.007000000000000002 -0.046210000000000015,-0.24032 z" id="path3739" inkscape:connector-curvature="0"/>
    <path style="fill:#1a1a1a;stroke-width:0.10625837" d="M0.3188047163085912,42.944104162597654 V6.1255841625976615 H25.0238737163086 H49.7289467163086 v36.81852 v36.81853 h-9.031964 h-9.031962 v-4.40973 v-4.40972 h4.303464 h4.303464 V39.86261416259765 V8.782044162597657 H24.811357716308592 H9.350763716308592 l0.0013000000000000004,1.8860900000000003 c0.0007940000000000001,1.03734 0.09421000000000003,11.13853 0.20779400000000003,22.44708 c0.11358800000000001,11.30854 0.23996100000000004,24.2787 0.2808260000000001,28.82258 l0.0743,8.26158 h4.765183 h4.765178000000001 v4.78163 v4.78163 h-9.563287 h-9.563253 z" id="path3741" inkscape:connector-curvature="0"/>
    <path style="fill:#1a1a1a;stroke-width:0.10625837" d="M0.3188047163085912,42.944104162597654 V6.1255841625976615 H25.0238737163086 H49.7289467163086 v36.81852 v36.81853 h-9.031964 h-9.031962 v-4.40973 v-4.40972 h4.303464 h4.303464 V39.86261416259765 V8.782044162597657 H24.811357716308592 H9.350763716308592 l0.000022000000000000003,1.46105 c0.000023,1.8447300000000002 0.28730300000000003,31.5466 0.365617,37.80142 c0.032200000000000006,2.57145 0.09003000000000003,8.60825 0.12851300000000002,13.41511 l0.06997000000000002,8.73975 h4.765212 h4.7652090000000005 v4.78163 v4.78163 h-9.563249 h-9.563253 z" id="path3743" inkscape:connector-curvature="0"/>
    <flowRoot xml:space="preserve" id="flowRoot3745" style="font-style:normal;font-weight:normal;font-size:40px;line-height:1.25;font-family:sans-serif;letter-spacing:0px;word-spacing:0px;fill:#1a1a1a;fill-opacity:1;stroke:none" transform="translate(-57.840553283691406,-97.20479583740234) matrix(0.26458333,0,0,0.14086966,45.133267,77.362353) "><flowRegion id="flowRegion3747" style="fill:#1a1a1a"><rect id="rect3749" width="487.5426025390625" height="228.65878295898438" x="244.42835998535156" y="433.9150695800781" style="fill:#1a1a1a"/></flowRegion><flowPara id="flowPara3751" style="font-style:normal;font-variant:normal;font-weight:normal;font-stretch:normal;font-size:146.66667175px;font-family:Impact;-inkscape-font-specification:Impact;fill:#1a1a1a">YRO</flowPara></flowRoot>    <path style="fill:#1a1a1a;stroke-width:0.24907388" d="m57.51356671630859,58.97160416259766 v-2.9442 l-2.6188000000000002,-4.86188 c-1.44035,-2.67404 -2.7026000000000003,-5.00239 -2.8050100000000002,-5.17413 c-0.16869000000000003,-0.28287000000000007 0.13958,-0.31224 3.277,-0.31224 c2.45116,0 3.5112,0.06520000000000002 3.62745,0.22303000000000003 c0.09030000000000002,0.12267000000000002 0.5172599999999999,1.4675500000000001 0.9487300000000001,2.98862 c0.8580800000000001,3.02511 1.09826,3.55405 1.2962500000000001,2.8547900000000004 c0.27789,-0.9814799999999999 1.87043,-5.4619 2.0453,-5.7542 c0.16169000000000003,-0.27027 0.6559800000000001,-0.31224 3.67753,-0.31224 c2.84588,0 3.45631,0.046100000000000016 3.30433,0.24929000000000004 c-0.10253000000000001,0.13711 -1.44922,2.49913 -2.99263,5.24893 l-2.80621,4.99963 v2.8694 v2.8694 h-3.47697 h-3.47697 z" id="path3753" inkscape:connector-curvature="0"/>
    <path style="fill:#1a1a1a;stroke-width:0.24907388" d="m72.1168467163086,53.773444162597656 v-8.14235 l6.17163,0.09130000000000002 c6.35962,0.09410000000000003 7.64328,0.22218000000000002 9.07316,0.9053599999999999 c1.4869400000000002,0.71045 1.9007200000000002,1.3664 2.04658,3.24437 c0.17313,2.22911 -0.3405200000000001,2.8810900000000004 -2.60493,3.3064400000000003 l-1.4814800000000001,0.27828 l1.51413,0.37750000000000006 c2.42355,0.6042200000000001 2.66577,1.0451 2.66577,4.85217 v3.22928 h-3.45039 h-3.45038 l-0.11351000000000001,-3.48604 c-0.12146000000000001,-3.73011 -0.16724000000000006,-3.82045 -1.93892,-3.8266400000000003 l-0.78232,-0.003000000000000001 v3.6577100000000002 v3.6577 h-3.8246700000000002 h-3.8246700000000002 zm10.00248,-2.20627 c0.28478000000000003,-0.27801000000000003 0.4116,-0.8743200000000001 0.33660000000000007,-1.5827900000000001 c-0.1257,-1.18756 -0.6840300000000001,-1.62886 -2.0608,-1.62886 c-0.56711,0 -0.6289400000000002,0.18536000000000002 -0.6289400000000002,1.88532 v1.8853 l0.94811,-0.05650000000000001 c0.58703,-0.035 1.12213,-0.22634000000000004 1.40503,-0.50252 z" id="path3755" inkscape:connector-curvature="0"/>
    <path style="fill:#1a1a1a;stroke-width:0.34769717" d="M0.1435347163085936,40.164434162597644 V1.6259765800441528e-7 h25.034195 h25.034197 v40.159024 v40.15902 h-9.387824 h-9.387824 v-4.85706 v-4.85706 l4.259292,-0.09760000000000003 l4.259289,-0.09760000000000003 l0.08882000000000002,-30.51043 l0.08882000000000002,-30.51042 H25.00578171630859 H9.8790557163086 v13.50305 c0,7.42668 0.10377500000000002,21.03903 0.230611,30.24966 l0.230611,16.74659 h4.820293 h4.820293 l-0.09622000000000004,5.12854 l-0.09622000000000004,5.12853 l-9.822444,0.09230000000000002 l-9.822445,0.09230000000000002 z" id="path3757" inkscape:connector-curvature="0"/>
    <ellipse style="fill:#1a1a1a;stroke-width:0.26458332" id="path3799" cx="25.531768798828125" cy="36.02222442626953" rx="7.127791881561279" ry="6.780094146728516"/>
    <path style="fill:#1a1a1a;stroke-width:0.26262233" d="m16.669507716308587,54.03435416259765 v-8.40391 h3.80302 c3.727543,0 3.805783,0.011700000000000004 3.942231,0.5909000000000001 c0.07657000000000001,0.32499000000000006 0.434237,2.05918 0.7948270000000001,3.8537500000000002 c0.574061,2.8569500000000003 0.9117940000000001,4.06735 0.915442,3.2808200000000003 c0.0005290000000000001,-0.13241000000000003 0.29606400000000005,-1.88916 0.656556,-3.90389 c0.36049200000000003,-2.01474 0.6554390000000001,-3.69881 0.6554390000000001,-3.74237 c0,-0.043600000000000014 1.7727,-0.07920000000000002 3.939333,-0.07920000000000002 h3.939337 v8.40391 v8.40391 h-2.626223 h-2.6262250000000003 v-5.69015 c0,-3.12958 -0.060030000000000014,-5.63011 -0.13341100000000003,-5.55673 c-0.07338,0.0734 -0.544763,2.36804 -1.047525,5.09925 c-0.502758,2.73121 -0.9767859999999999,5.23174 -1.053391,5.5567400000000005 c-0.12749700000000003,0.54091 -0.289753,0.5908900000000001 -1.9179750000000002,0.5908900000000001 h-1.778693 l-1.022765,-5.3181 c-0.562523,-2.92495 -1.118929,-5.43037 -1.236459,-5.56759 c-0.11753300000000003,-0.13722 -0.21369300000000002,2.25593 -0.21369300000000002,5.3181 v5.56759 h-2.494913 h-2.4949120000000002 z" id="path3845" inkscape:connector-curvature="0"/>
    <path style="fill:#1a1a1a;stroke-width:0.26262233" d="m97.60068671630859,61.79067416259767 c-2.06251,-0.46982000000000007 -3.8547000000000002,-1.49429 -4.37531,-2.50104 c-0.3099200000000001,-0.5993200000000001 -0.3954000000000001,-1.80515 -0.3954000000000001,-5.57773 c0,-4.12425 0.06460000000000002,-4.90606 0.45151,-5.46246 c0.7558600000000001,-1.08702 1.44429,-1.5383499999999999 3.18977,-2.09116 c4.88694,-1.54776 12.00742,-0.5606300000000001 13.80452,1.9137400000000002 c0.46143,0.6353400000000001 0.54708,1.22981 0.6342000000000001,4.40193 c0.13968,5.08629 -0.05970000000000001,6.44147 -1.10055,7.47904 c-1.39595,1.39161 -3.48321,1.9997 -7.26242,2.11579 c-2.2500299999999998,0.06910000000000002 -3.80612,-0.018400000000000003 -4.94632,-0.27811 zm5.34025,-8.01894 v-5.64638 l-0.8706800000000001,-0.08360000000000002 c-1.5798200000000002,-0.15165 -1.62423,0.0020000000000000005 -1.62423,5.60932 c0,2.78712 0.07410000000000001,5.26049 0.16458000000000003,5.49638 c0.12304000000000001,0.32065000000000005 0.4378500000000001,0.40892000000000006 1.24745,0.34976000000000007 l1.08288,-0.07910000000000002 z" id="path3847" inkscape:connector-curvature="0"/>
  </g></g></svg>